<svg id="Capa_1" data-name="Capa 1" xmlns="http://www.w3.org/2000/svg" viewBox="0 0 16 16"><defs><style>.cls-1{fill-rule:evenodd;}.cls-2{fill:#ff85e0;}</style></defs><path class="cls-1" d="M3.69,8.74V15.4a.6.6,0,0,1-.61.6H.62A.61.61,0,0,1,0,15.4V3.3a.6.6,0,0,1,.4-.56L7.34.12a1.88,1.88,0,0,1,1.32,0L15.6,2.74a.6.6,0,0,1,.36.78.62.62,0,0,1-.8.34L8.22,1.25a.66.66,0,0,0-.44,0L1.23,3.72V14.79H2.46V5.72a.62.62,0,0,1,.62-.61h9.84a.62.62,0,0,1,.62.61v9.07h1.23V5.72a.61.61,0,0,1,.61-.61.62.62,0,0,1,.62.61V15.4a.61.61,0,0,1-.62.6H12.92a.6.6,0,0,1-.61-.6V8.74Zm8.62-1.21V6.32H3.69V7.53Z" transform="translate(0 0)"/><path class="cls-2" d="M6.27,14.8a.35.35,0,0,0,.26-.12.48.48,0,0,0,.1-.31V12.63l1.3-2.13a.2.2,0,0,0,0-.08v-.05a.59.59,0,0,0,0-.13.5.5,0,0,0-.11-.32.37.37,0,0,0-.26-.12.36.36,0,0,0-.31.21l-1,1.72L5.2,10A.42.42,0,0,0,5,9.8h0a.41.41,0,0,0-.27.12.4.4,0,0,0-.13.31,1,1,0,0,0,0,.16.76.76,0,0,0,.09.18l1.29,2v1.84a.45.45,0,0,0,.08.26l0,0A.34.34,0,0,0,6.27,14.8Z" transform="translate(0 0)"/><path d="M9.76,14.8a2.24,2.24,0,0,0,.86-.17,1.76,1.76,0,0,0,.64-.5,1.29,1.29,0,0,0,.24-.78,1.51,1.51,0,0,0-.1-.6,1,1,0,0,0-.31-.41,1.53,1.53,0,0,0-.51-.27,4.87,4.87,0,0,0-.71-.18,4.17,4.17,0,0,1-.54-.14A.87.87,0,0,1,9,11.53a.49.49,0,0,1-.12-.34.55.55,0,0,1,.1-.31.72.72,0,0,1,.31-.2,1.17,1.17,0,0,1,.49-.08,1.42,1.42,0,0,1,.38.06l.38.14a1.12,1.12,0,0,1,.29.19.33.33,0,0,0,.19.06.37.37,0,0,0,.27-.12.45.45,0,0,0,.11-.28.47.47,0,0,0-.19-.37,1.92,1.92,0,0,0-.62-.34,2.38,2.38,0,0,0-.81-.14,2.2,2.2,0,0,0-.86.17,1.46,1.46,0,0,0-.61.48,1.32,1.32,0,0,0-.23.77,1.53,1.53,0,0,0,.1.54,1.19,1.19,0,0,0,.28.42,1.51,1.51,0,0,0,.46.29,2.79,2.79,0,0,0,.65.17,2.74,2.74,0,0,1,.63.16,1,1,0,0,1,.38.24.56.56,0,0,1,.12.36.48.48,0,0,1-.13.31.89.89,0,0,1-.34.21,1.34,1.34,0,0,1-.46.08,1.65,1.65,0,0,1-.63-.11,1.84,1.84,0,0,1-.51-.33.36.36,0,0,0-.23-.08.38.38,0,0,0-.28.12.43.43,0,0,0-.11.28.49.49,0,0,0,.05.2.52.52,0,0,0,.13.17,1.9,1.9,0,0,0,.73.43A2.77,2.77,0,0,0,9.76,14.8Z" transform="translate(0 0)"/></svg>