<svg id="Capa_1" data-name="Capa 1" xmlns="http://www.w3.org/2000/svg" viewBox="0 0 16 16"><defs><style>.cls-1,.cls-2{fill-rule:evenodd;}.cls-2{fill:#ff85e0;}</style></defs><path class="cls-1" d="M3.69,8.74V15.4a.6.6,0,0,1-.61.6H.62A.61.61,0,0,1,0,15.4V3.3a.6.6,0,0,1,.4-.56L7.34.12a1.88,1.88,0,0,1,1.32,0L15.6,2.74a.6.6,0,0,1,.36.78.62.62,0,0,1-.8.34L8.22,1.25a.66.66,0,0,0-.44,0L1.23,3.72V14.79H2.46V5.72a.62.62,0,0,1,.62-.61h9.84a.62.62,0,0,1,.62.61v9.07h1.23V5.72a.61.61,0,0,1,.61-.61.62.62,0,0,1,.62.61V15.4a.61.61,0,0,1-.62.6H12.92a.6.6,0,0,1-.61-.6V8.74Zm8.62-1.21V6.32H3.69V7.53Z" transform="translate(0 0)"/><path class="cls-2" d="M6.6,14.9a2.91,2.91,0,0,0,.57-.06,1.65,1.65,0,0,0,.55-.23,1.17,1.17,0,0,0,.42-.46,1.6,1.6,0,0,0,.16-.77,1.23,1.23,0,0,0-.18-.7,1.26,1.26,0,0,0-.46-.43l-.14-.07-.11,0,0,0a1,1,0,0,0,.33-.26l.07-.08A1,1,0,0,0,8,11.17a1.25,1.25,0,0,0-.35-.95A1.54,1.54,0,0,0,6.62,9.9H4.75a.45.45,0,0,0-.32.12.42.42,0,0,0-.13.32v4.12a.39.39,0,0,0,.13.31.42.42,0,0,0,.32.13ZM5.26,10.74H6.49a.6.6,0,0,1,.41.14.56.56,0,0,1,.16.45.45.45,0,0,1-.17.39.59.59,0,0,1-.38.14H5.26Zm1.28,2H5.26v1.38H6.6a.8.8,0,0,0,.54-.18.66.66,0,0,0,.2-.52.68.68,0,0,0-.14-.47.56.56,0,0,0-.31-.17A1.5,1.5,0,0,0,6.54,12.7Z" transform="translate(0 0)"/><path d="M9.22,14.9a.37.37,0,0,0,.29-.13.39.39,0,0,0,.13-.31V12.8h1.45a.41.41,0,0,0,.24-.08l.05,0a.39.39,0,0,0,.12-.28.41.41,0,0,0-.12-.3.4.4,0,0,0-.29-.12H9.64V10.72h1.75a.35.35,0,0,0,.24-.08l0,0a.38.38,0,0,0,.12-.28.41.41,0,0,0-.12-.3.38.38,0,0,0-.29-.12H9.21a.38.38,0,0,0-.29.12.45.45,0,0,0-.12.32v4.12a.41.41,0,0,0,.12.31A.38.38,0,0,0,9.22,14.9Z" transform="translate(0 0)"/></svg>