<svg id="Capa_1" data-name="Capa 1" xmlns="http://www.w3.org/2000/svg" viewBox="0 0 95.56 17"><defs><style>.cls-1,.cls-2{fill-rule:evenodd;}.cls-2,.cls-3{fill:#ff85e0;}</style></defs><path class="cls-1" d="M4.42,9.29v7.07a.65.65,0,0,1-.65.64H1.15a.65.65,0,0,1-.65-.64V3.51a.64.64,0,0,1,.42-.6L8.3.13a2,2,0,0,1,1.4,0l7.38,2.78a.64.64,0,0,1,.38.83.67.67,0,0,1-.85.37L9.23,1.33a.61.61,0,0,0-.46,0L1.81,4V15.71H3.12V6.08a.65.65,0,0,1,.65-.65H14.23a.65.65,0,0,1,.65.65v9.63h1.31V6.08a.66.66,0,0,1,.66-.65.65.65,0,0,1,.65.65V16.36a.65.65,0,0,1-.65.64H14.23a.65.65,0,0,1-.65-.64V9.29ZM13.58,8V6.72H4.42V8Z" transform="translate(-0.5 0)"/><path class="cls-2" d="M48.1,15.74a.66.66,0,0,1-.42.25,1.1,1.1,0,0,1-.51,0,1.38,1.38,0,0,1-.42-.14,2.22,2.22,0,0,1-.51-.44,2.18,2.18,0,0,1-.41-.79,4.14,4.14,0,0,1-.16-1.27,1.28,1.28,0,0,0-.09-.48,1.05,1.05,0,0,0-.25-.37,1,1,0,0,0-.43-.24l-.13,0a2.19,2.19,0,0,0-.46,0H41.5v2.91a1,1,0,0,1-.21.65.71.71,0,0,1-.58.26,1.16,1.16,0,0,1-.75-.26.82.82,0,0,1-.34-.65V6.41a.9.9,0,0,1,.92-.91h4.32a2.8,2.8,0,0,1,1.46.41,3.09,3.09,0,0,1,1.1,1.14,3.23,3.23,0,0,1,.43,1.68,2.74,2.74,0,0,1-.24,1.11,3.37,3.37,0,0,1-.63,1l-.16.17a3.07,3.07,0,0,1-.35.28l-.08.05,0,0a3.16,3.16,0,0,1,.38.34,2.71,2.71,0,0,1,.44.66,2.41,2.41,0,0,1,.18.76c0,.25.07.47.09.66a1.58,1.58,0,0,0,.09.48.51.51,0,0,0,.26.3.83.83,0,0,1,.41.56A.67.67,0,0,1,48.1,15.74ZM44.78,7.22H41.5v3.41h3.28a.73.73,0,0,0,.53-.25,1.83,1.83,0,0,0,.42-.67,2.62,2.62,0,0,0,.17-.94,1.67,1.67,0,0,0-.36-1.1A1,1,0,0,0,44.78,7.22ZM54.43,16a4.12,4.12,0,0,0,2.45-.7,4.46,4.46,0,0,0,1.52-1.9,6.37,6.37,0,0,0,.53-2.65,7,7,0,0,0-.29-2A5.15,5.15,0,0,0,57.77,7a4,4,0,0,0-1.42-1.13,4.37,4.37,0,0,0-1.92-.41H50.85a.91.91,0,0,0-.66.26.92.92,0,0,0-.26.65v8.68a.89.89,0,0,0,.92.91Zm-.15-8.78H51.81v7.05h2.47a2.43,2.43,0,0,0,1.55-.48,2.87,2.87,0,0,0,.87-1.29A5.22,5.22,0,0,0,57,10.75a5.29,5.29,0,0,0-.16-1.34,3.21,3.21,0,0,0-.49-1.13,2.39,2.39,0,0,0-.84-.77A2.43,2.43,0,0,0,54.28,7.22Z" transform="translate(-0.5 0)"/><path class="cls-1" d="M85.86,15.72a.94.94,0,0,1-.7.28.89.89,0,0,1-.67-.28,1,1,0,0,1-.27-.7V5.14a1,1,0,0,1,1-1,.9.9,0,0,1,.68.28,1,1,0,0,1,.26.7V15A.94.94,0,0,1,85.86,15.72Zm-15.54,0a5,5,0,0,1-2,.4,6.67,6.67,0,0,1-2-.28,5,5,0,0,1-1.71-1,1.35,1.35,0,0,1-.32-.4,1.06,1.06,0,0,1-.11-.45.94.94,0,0,1,.26-.65.88.88,0,0,1,.67-.28.83.83,0,0,1,.54.19,5.18,5.18,0,0,0,1.21.75,3.77,3.77,0,0,0,1.48.26,3.2,3.2,0,0,0,1.09-.18,2.19,2.19,0,0,0,.8-.5,1,1,0,0,0,.3-.71,1.19,1.19,0,0,0-.29-.82,2.24,2.24,0,0,0-.88-.57,7.18,7.18,0,0,0-1.5-.36,6.24,6.24,0,0,1-1.52-.39,3.52,3.52,0,0,1-1.1-.67,2.66,2.66,0,0,1-.66-1,3.26,3.26,0,0,1-.22-1.24,2.93,2.93,0,0,1,.53-1.78A3.4,3.4,0,0,1,66.3,5a5.27,5.27,0,0,1,2-.38A5.69,5.69,0,0,1,70.24,5a4.42,4.42,0,0,1,1.45.79,1.08,1.08,0,0,1,.47.85.87.87,0,0,1-.28.64.85.85,0,0,1-.64.29.74.74,0,0,1-.43-.14A3.05,3.05,0,0,0,70.12,7a6.1,6.1,0,0,0-.91-.33,3.34,3.34,0,0,0-.89-.14,3.25,3.25,0,0,0-1.16.18,1.48,1.48,0,0,0-.72.48,1.08,1.08,0,0,0-.24.7,1.17,1.17,0,0,0,.28.79,1.9,1.9,0,0,0,.81.5,10.47,10.47,0,0,0,1.27.33,11.49,11.49,0,0,1,1.68.41,3.92,3.92,0,0,1,1.21.62,2.31,2.31,0,0,1,.72.94,3.57,3.57,0,0,1,.24,1.39,2.88,2.88,0,0,1-.57,1.79A3.75,3.75,0,0,1,70.32,15.76Zm8.36.2a3.24,3.24,0,0,1-1.13.2,3.65,3.65,0,0,1-2-.57A4,4,0,0,1,74.13,14a5,5,0,0,1-.52-2.29,5,5,0,0,1,.52-2.31,4.11,4.11,0,0,1,1.4-1.57,3.53,3.53,0,0,1,2-.57,3.72,3.72,0,0,1,1.27.21,3.65,3.65,0,0,1,1,.53l.16.12.15.14v0a1,1,0,0,1,.27-.7A.9.9,0,0,1,81,7.28a.93.93,0,0,1,.69.27,1,1,0,0,1,.27.71V15a1,1,0,0,1-.27.7,1,1,0,0,1-1.38,0l-.08-.1a.93.93,0,0,1-.18-.46V15l-.08.08a2.78,2.78,0,0,1-.4.35A3.86,3.86,0,0,1,78.68,16Zm-.89-1.56a2.18,2.18,0,0,1-1.22-.35,2.48,2.48,0,0,1-.82-1,3,3,0,0,1-.3-1.36,3.11,3.11,0,0,1,.3-1.38,2.48,2.48,0,0,1,.82-1,2.32,2.32,0,0,1,2.45,0,2.4,2.4,0,0,1,.82,1,3.11,3.11,0,0,1,.3,1.38,3,3,0,0,1-.3,1.36,2.4,2.4,0,0,1-.82,1A2.19,2.19,0,0,1,77.79,14.4Zm14.54,1.76a4.76,4.76,0,0,0,1.55-.26,3.84,3.84,0,0,0,1.17-.62,1,1,0,0,0,.45-.78.8.8,0,0,0-.82-.8,1.14,1.14,0,0,0-.54.14,4.35,4.35,0,0,0-.39.23,2.18,2.18,0,0,1-.57.23,3.41,3.41,0,0,1-.94.1,2.46,2.46,0,0,1-2.14-1.22,2.21,2.21,0,0,1-.29-.78v0h5.28a1.07,1.07,0,0,0,.56-.15l.12-.09a.81.81,0,0,0,.3-.62,4.06,4.06,0,0,0-.33-1.63,4.4,4.4,0,0,0-.89-1.35,4.13,4.13,0,0,0-1.28-.92A3.58,3.58,0,0,0,92,7.28a4,4,0,0,0-2,.54,4.24,4.24,0,0,0-1.53,1.56,4.87,4.87,0,0,0-.58,2.46,4.49,4.49,0,0,0,.54,2.21A3.91,3.91,0,0,0,90,15.59,4.71,4.71,0,0,0,92.33,16.16Zm-2.51-5.38H94v-.11a1.44,1.44,0,0,0-.33-.83A2,2,0,0,0,93,9.26,2.06,2.06,0,0,0,92,9a2.82,2.82,0,0,0-.89.13,1.65,1.65,0,0,0-.72.43,1.88,1.88,0,0,0-.48.82l-.06.17Z" transform="translate(-0.5 0)"/><path class="cls-3" d="M24.55,16a.84.84,0,0,0,.6-.26.88.88,0,0,0,.27-.65V11.43l3.13-4.49a1.62,1.62,0,0,0,.1-.18l0-.1a1.36,1.36,0,0,0,0-.27.94.94,0,0,0-.9-.94.89.89,0,0,0-.75.46L24.59,9.52,22,5.88a1,1,0,0,0-.62-.42h-.11a1,1,0,0,0-.65.26.81.81,0,0,0-.32.66.85.85,0,0,0,.07.33,1,1,0,0,0,.2.37l3.13,4.15v3.87a.91.91,0,0,0,.18.56l.08.09A.88.88,0,0,0,24.55,16Z" transform="translate(-0.5 0)"/><path class="cls-2" d="M37.59,15.84a.9.9,0,0,1-.58.24.81.81,0,0,1-.49-.17l-.1-.09a1.13,1.13,0,0,1-.24-.36l-.77-1.81H30.93l-.78,1.83a1,1,0,0,1-.32.44.81.81,0,0,1-.47.16.75.75,0,0,1-.6-.23.81.81,0,0,1-.2-.55,1,1,0,0,1,.05-.29l3.73-9a1,1,0,0,1,.37-.47.84.84,0,0,1,.53-.13.88.88,0,0,1,.84.6l3.69,8.79a1,1,0,0,1,.08.36A.86.86,0,0,1,37.59,15.84Zm-5.92-3.92h3L33.16,8.41Z" transform="translate(-0.5 0)"/></svg>