<svg id="Capa_1" data-name="Capa 1" xmlns="http://www.w3.org/2000/svg" viewBox="0 0 96 16"><defs><style>.cls-1,.cls-2{fill-rule:evenodd;}.cls-2{fill:#ff85e0;}</style></defs><path class="cls-1" d="M3.69,9.74V16.4a.6.6,0,0,1-.61.6H.62A.61.61,0,0,1,0,16.4V4.3a.6.6,0,0,1,.4-.56L7.34,1.12a1.87,1.87,0,0,1,1.32,0L15.6,3.74a.6.6,0,0,1,.36.78.62.62,0,0,1-.8.34L8.22,2.25a.66.66,0,0,0-.44,0L1.23,4.72V15.79H2.46V6.72a.62.62,0,0,1,.62-.61h9.84a.62.62,0,0,1,.62.61v9.07h1.23V6.72a.61.61,0,0,1,.61-.61.62.62,0,0,1,.62.61V16.4a.61.61,0,0,1-.62.6H12.92a.6.6,0,0,1-.61-.6V9.74Zm8.62-1.21V7.32H3.69V8.53Z" transform="translate(0 -1)"/><path class="cls-2" d="M25.81,15.69a7.3,7.3,0,0,1-1.36.14H20.07a1.07,1.07,0,0,1-.76-.29A1,1,0,0,1,19,14.8V5a1,1,0,0,1,.31-.73,1,1,0,0,1,.76-.3H24.5A3.6,3.6,0,0,1,27,4.76,2.92,2.92,0,0,1,27.84,7a2.41,2.41,0,0,1-.4,1.39l-.14.2a2.8,2.8,0,0,1-.8.62l-.13,0,.27.11.33.17a3,3,0,0,1,1.09,1,2.9,2.9,0,0,1,.44,1.66,3.94,3.94,0,0,1-.38,1.83,2.78,2.78,0,0,1-1,1.09A4,4,0,0,1,25.81,15.69ZM24.19,6h-2.9V8.63h2.95a1.44,1.44,0,0,0,.91-.32,1.11,1.11,0,0,0,.41-.93,1.36,1.36,0,0,0-.38-1.06A1.44,1.44,0,0,0,24.19,6Zm-2.9,4.64h3a4.1,4.1,0,0,1,.81.08,1.41,1.41,0,0,1,.75.42,1.59,1.59,0,0,1,.32,1.1,1.54,1.54,0,0,1-.48,1.24,1.85,1.85,0,0,1-1.28.42H21.29ZM37,15.41a5.26,5.26,0,0,1-4.84,0,4.55,4.55,0,0,1-2.37-4.09,4.56,4.56,0,0,1,.65-2.44,4.5,4.5,0,0,1,1.72-1.66,5.18,5.18,0,0,1,4.84,0,4.55,4.55,0,0,1,2.36,4.1A4.52,4.52,0,0,1,37,15.41ZM34.6,14.14a2.57,2.57,0,0,1-2.31-1.34,2.88,2.88,0,0,1-.37-1.48,2.9,2.9,0,0,1,.37-1.5A2.57,2.57,0,0,1,34.6,8.48a2.6,2.6,0,0,1,2.31,1.34,3,3,0,0,1,.36,1.5,3,3,0,0,1-.36,1.48,2.6,2.6,0,0,1-2.31,1.34Zm11.19,1.39a2.32,2.32,0,0,1-1.15.3,6.21,6.21,0,0,1-.82-.06,2.1,2.1,0,0,1-.84-.29,1.66,1.66,0,0,1-.66-.7l-.08-.16a2.89,2.89,0,0,1-.19-1.14V8.82h-.81a1,1,0,0,1-.7-.27.9.9,0,0,1-.28-.68.83.83,0,0,1,.28-.65l.12-.09A1,1,0,0,1,41.24,7h.81V5.88a1,1,0,0,1,.31-.74,1.06,1.06,0,0,1,.77-.29,1,1,0,0,1,.74.29l.11.12a1.08,1.08,0,0,1,.18.62V7h1.25a1,1,0,0,1,.71.27.91.91,0,0,1,.28.67.87.87,0,0,1-.28.65l-.12.1a1,1,0,0,1-.59.17H44.16V13.4a.81.81,0,0,0,.1.39.56.56,0,0,0,.26.22,1.13,1.13,0,0,0,.36.06,1,1,0,0,0,.39-.07,1,1,0,0,1,.41-.08.57.57,0,0,1,.44.22.85.85,0,0,1,.21.61A.91.91,0,0,1,45.79,15.53Zm6.34.47a3.59,3.59,0,0,0,1.24-.21,3.86,3.86,0,0,0,1-.52,4.2,4.2,0,0,0,.38-.3l.15-.15V15a1.14,1.14,0,0,0,.18.44l.11.13a1.13,1.13,0,0,0,1.51,0,1,1,0,0,0,.3-.74V7.65a1,1,0,0,0-.3-.74,1.06,1.06,0,0,0-.76-.29,1,1,0,0,0-.75.3,1,1,0,0,0-.3.73v0l-.12-.11-.22-.17a4.21,4.21,0,0,0-1.1-.56,4.14,4.14,0,0,0-1.39-.22,4,4,0,0,0-2.15.6,4.41,4.41,0,0,0-1.54,1.66,5,5,0,0,0-.57,2.44,5,5,0,0,0,.57,2.42,4.3,4.3,0,0,0,1.56,1.66A4.15,4.15,0,0,0,52.13,16Zm-1.07-2.23a2.38,2.38,0,0,0,1.33.37,2.45,2.45,0,0,0,1.36-.37,2.55,2.55,0,0,0,.9-1A3,3,0,0,0,55,11.32a3.17,3.17,0,0,0-.33-1.46,2.59,2.59,0,0,0-.9-1,2.45,2.45,0,0,0-1.36-.37,2.38,2.38,0,0,0-1.33.37,2.61,2.61,0,0,0-.91,1,3.16,3.16,0,0,0-.32,1.46,3,3,0,0,0,.32,1.43A2.57,2.57,0,0,0,51.06,13.77Z" transform="translate(0 -1)"/><path class="cls-1" d="M60.88,15.54a1.21,1.21,0,0,1-1.57,0A1,1,0,0,1,59,14.8V5a1,1,0,0,1,.31-.73,1.06,1.06,0,0,1,.77-.3h5.74a1.07,1.07,0,0,1,.77.28A.9.9,0,0,1,66.9,5a.88.88,0,0,1-.31.66l-.13.1a1.12,1.12,0,0,1-.64.18H61.21v3H65a1.11,1.11,0,0,1,.77.28.93.93,0,0,1,.31.72.89.89,0,0,1-.31.65l-.13.11a1.14,1.14,0,0,1-.64.18H61.21V14.8A1,1,0,0,1,60.88,15.54Zm14.59-.13A5.08,5.08,0,0,1,73,16a5,5,0,0,1-2.43-.59,4.49,4.49,0,0,1-2.38-4.09,4.52,4.52,0,0,1,2.38-4.1A4.92,4.92,0,0,1,73,6.62a5,5,0,0,1,2.43.6,4.53,4.53,0,0,1,2.37,4.1,4.58,4.58,0,0,1-.64,2.44A4.64,4.64,0,0,1,75.47,15.41ZM73,14.14a2.6,2.6,0,0,1-2.33-1.34,3,3,0,0,1-.36-1.48,3,3,0,0,1,.36-1.5,2.72,2.72,0,0,1,3.68-1,2.63,2.63,0,0,1,1,1,3,3,0,0,1,.36,1.5,3,3,0,0,1-.36,1.48,2.63,2.63,0,0,1-1,1A2.72,2.72,0,0,1,73,14.14Zm8.39,1.4a1.06,1.06,0,0,1-.76.29,1.07,1.07,0,0,1-.76-.29,1,1,0,0,1-.3-.74v-7a1,1,0,0,1,.3-.74,1.07,1.07,0,0,1,.76-.29,1.06,1.06,0,0,1,.76.29l.11.13a1,1,0,0,1,.19.61v.23l.1-.16a3,3,0,0,1,.28-.33,3,3,0,0,1,.7-.53,3.45,3.45,0,0,1,.83-.31,3.86,3.86,0,0,1,.89-.1,1.4,1.4,0,0,1,.89.29.83.83,0,0,1,.36.67,1,1,0,0,1-.3.81,1,1,0,0,1-.65.24,1.48,1.48,0,0,1-.61-.12,1.54,1.54,0,0,0-.63-.12,1.57,1.57,0,0,0-.65.15,1.75,1.75,0,0,0-.6.45,2.29,2.29,0,0,0-.44.75,3,3,0,0,0-.17,1v4A1,1,0,0,1,81.43,15.54ZM91.1,16a3.6,3.6,0,0,0,1.25-.21,3.93,3.93,0,0,0,1-.52,4.2,4.2,0,0,0,.38-.3l.15-.15V15a.9.9,0,0,0,.18.44l.11.13a1.14,1.14,0,0,0,1.52,0,1,1,0,0,0,.3-.74V7.65a1,1,0,0,0-.3-.74,1.06,1.06,0,0,0-.76-.29,1,1,0,0,0-.76.3,1,1,0,0,0-.3.73v0l-.13-.11-.22-.17A4.23,4.23,0,0,0,91,6.62a4,4,0,0,0-2.15.6,4.28,4.28,0,0,0-1.55,1.66,5,5,0,0,0-.58,2.44,5,5,0,0,0,.58,2.42,4.23,4.23,0,0,0,1.56,1.66A4.19,4.19,0,0,0,91.1,16ZM90,13.77a2.67,2.67,0,0,0,2.71,0,2.57,2.57,0,0,0,.91-1A3,3,0,0,0,94,11.32a3.17,3.17,0,0,0-.33-1.46,2.61,2.61,0,0,0-.91-1,2.67,2.67,0,0,0-2.71,0,2.69,2.69,0,0,0-.91,1,3.3,3.3,0,0,0-.32,1.46,3.17,3.17,0,0,0,.32,1.43A2.65,2.65,0,0,0,90,13.77Z" transform="translate(0 -1)"/></svg>