<svg id="Capa_1" data-name="Capa 1" xmlns="http://www.w3.org/2000/svg" viewBox="0 0 40 40"><defs><style>.cls-1,.cls-4{fill:#fff;}.cls-2{fill:#c7c7c7;}.cls-3{fill:#ff85e0;}.cls-4{stroke:#fff;stroke-width:0.8px;fill-rule:evenodd;}</style></defs><circle class="cls-1" cx="20" cy="20" r="20"/><path class="cls-2" d="M13,14a1,1,0,0,0,0,2Zm2.22,1,1-.2a1,1,0,0,0-1-.8Zm-.53,2.41a1,1,0,0,0,2-.4Zm2.75,7.64a1,1,0,0,0,0,2Zm11.12,1v1a1,1,0,0,0,.89-.55ZM33,17.21l.89.45A1,1,0,0,0,33,16.21Zm-17.33-1a1,1,0,0,0,0,2Zm.79,10a1,1,0,0,0,1.18.78,1,1,0,0,0,.78-1.17ZM16.65,17a1,1,0,1,0-2,.4Zm1.5,9.75a1,1,0,0,0-1.41-1.42ZM14.9,28.59l-.71-.71Zm13.66,2.88a1,1,0,1,0,0-2Zm0-1h-1a1,1,0,0,0,.29.71Zm2.22,2.21-.71.71a1,1,0,0,0,.71.29Zm-11.11,0-.87-.5a1,1,0,0,0-.13.5Zm0,2.21h-1a1,1,0,0,0,.13.51ZM13,16h2.22V14H13Zm1.24-.8.45,2.21,2-.4L16.2,14.8Zm3.2,11.85H28.56v-2H17.44Zm12-.55,4.44-8.84-1.78-.9L27.66,25.6ZM33,16.21H15.67v2H33ZM18.42,25.86,16.65,17l-2,.4,1.77,8.84Zm-1.68-.52-2.55,2.54L15.6,29.3l2.55-2.54Zm-2.55,2.54a2.1,2.1,0,0,0,1.49,3.59v-2h-.06a.1.1,0,0,1,0-.05.18.18,0,0,1,0-.06.05.05,0,0,1,0-.05Zm1.49,3.59H28.56v-2H15.68Zm13.88-1a1.22,1.22,0,0,1,1.22-1.21v-2a3.22,3.22,0,0,0-3.22,3.21Zm1.22-1.21A1.22,1.22,0,0,1,32,30.47h2a3.22,3.22,0,0,0-3.22-3.21ZM32,30.47a1.21,1.21,0,0,1-1.22,1.21v2A3.22,3.22,0,0,0,34,30.47ZM31.48,32l-2.22-2.22-1.41,1.42,2.22,2.21ZM20.53,33.19a1.23,1.23,0,0,1,1.38-.57l.51-1.93a3.22,3.22,0,0,0-3.62,1.49Zm1.38-.57a1.21,1.21,0,0,1,.9,1.17h2a3.2,3.2,0,0,0-2.39-3.1Zm.9,1.17a1.21,1.21,0,0,1-.9,1.17l.51,1.93a3.2,3.2,0,0,0,2.39-3.1ZM21.91,35a1.23,1.23,0,0,1-1.38-.57l-1.73,1a3.22,3.22,0,0,0,3.62,1.49Zm-1.24-.07V32.68h-2v2.21Z" transform="translate(-4 -4)"/><circle class="cls-3" cx="28" cy="12" r="6"/><path class="cls-4" d="M34.52,14.24a.56.56,0,0,0-.8,0l-2.6,2.9L30,16a.57.57,0,0,0-.81,0,.58.58,0,0,0,0,.81l1.57,1.59a.58.58,0,0,0,.41.17h0a.61.61,0,0,0,.41-.19l3-3.36A.57.57,0,0,0,34.52,14.24Z" transform="translate(-4 -4)"/></svg>