<svg id="Capa_1" data-name="Capa 1" xmlns="http://www.w3.org/2000/svg" viewBox="0 0 40 40"><defs><style>.cls-1,.cls-3{fill:#ff85e0;}.cls-2{fill:#fff;}.cls-3{stroke:#ff85e0;}</style></defs><circle class="cls-1" cx="20" cy="20" r="20"/><path class="cls-2" d="M9,10a1,1,0,0,0,0,2Zm2.22,1,1-.2a1,1,0,0,0-1-.8Zm-.53,2.41a1,1,0,0,0,2-.4Zm2.75,7.64a1,1,0,0,0,0,2Zm11.12,1v1a1,1,0,0,0,.89-.55ZM29,13.21l.89.45A1,1,0,0,0,29,12.21Zm-17.33-1a1,1,0,0,0,0,2Zm.79,10a1,1,0,0,0,1.18.78,1,1,0,0,0,.78-1.17ZM12.65,13a1,1,0,1,0-2,.4Zm1.5,9.75a1,1,0,0,0-1.41-1.42ZM10.9,24.59l-.71-.71Zm13.66,2.88a1,1,0,1,0,0-2Zm0-1h-1a1,1,0,0,0,.29.71Zm2.22,2.21-.71.71a1,1,0,0,0,.71.29Zm-11.11,0-.87-.5a1,1,0,0,0-.13.5Zm0,2.21h-1a1,1,0,0,0,.13.51ZM9,12h2.22V10H9Zm1.24-.8.45,2.21,2-.4L12.2,10.8Zm3.2,11.85H24.56v-2H13.44Zm12-.55,4.44-8.84-1.78-.9L23.66,21.6ZM29,12.21H11.67v2H29ZM14.42,21.86,12.65,13l-2,.4,1.77,8.84Zm-1.68-.52-2.55,2.54L11.6,25.3l2.55-2.54Zm-2.55,2.54a2.1,2.1,0,0,0,1.49,3.59v-2h-.06a.1.1,0,0,1,0-.05.18.18,0,0,1,0-.06.05.05,0,0,1,0-.05Zm1.49,3.59H24.56v-2H11.68Zm13.88-1a1.22,1.22,0,0,1,1.22-1.21v-2a3.22,3.22,0,0,0-3.22,3.21Zm1.22-1.21A1.22,1.22,0,0,1,28,26.47h2a3.22,3.22,0,0,0-3.22-3.21ZM28,26.47a1.21,1.21,0,0,1-1.22,1.21v2A3.22,3.22,0,0,0,30,26.47ZM27.48,28l-2.22-2.22-1.41,1.42,2.22,2.21ZM16.53,29.19a1.23,1.23,0,0,1,1.38-.57l.51-1.93a3.22,3.22,0,0,0-3.62,1.49Zm1.38-.57a1.21,1.21,0,0,1,.9,1.17h2a3.2,3.2,0,0,0-2.39-3.1Zm.9,1.17a1.21,1.21,0,0,1-.9,1.17l.51,1.93a3.2,3.2,0,0,0,2.39-3.1ZM17.91,31a1.23,1.23,0,0,1-1.38-.57l-1.73,1a3.22,3.22,0,0,0,3.62,1.49Zm-1.24-.07V28.68h-2v2.21Z"/><circle class="cls-2" cx="29" cy="13" r="6"/><path class="cls-3" d="M31.53,12.53H29.47V10.47A.46.46,0,0,0,29,10a.47.47,0,0,0-.47.47v2.06H26.47A.46.46,0,0,0,26,13a.44.44,0,0,0,.14.33.45.45,0,0,0,.33.14h2.06v2.06a.45.45,0,0,0,.14.33A.44.44,0,0,0,29,16a.47.47,0,0,0,.47-.47V13.47h2.06A.46.46,0,0,0,32,13,.47.47,0,0,0,31.53,12.53Z"/></svg>