<svg id="Capa_1" data-name="Capa 1" xmlns="http://www.w3.org/2000/svg" viewBox="0 0 90 57.81"><defs><style>.cls-1{fill:#ff85e0;fill-rule:evenodd;}</style></defs><path class="cls-1" d="M85.47,0H4.53A4.53,4.53,0,0,0,0,4.53V53.28a4.53,4.53,0,0,0,4.53,4.53H85.47A4.53,4.53,0,0,0,90,53.28V4.53A4.53,4.53,0,0,0,85.47,0ZM45,3.4H83.76L45,33.43,6.24,3.4Zm40.52,51a1.14,1.14,0,0,0,1.13-1.13V5.8L56.19,29.36,77.27,45.72h0a1.86,1.86,0,0,1-2.63,2.63h0L53.22,31.67l-6.42,5a2.69,2.69,0,0,1-3.6,0l-6.42-5L15.37,48.36h0a1.86,1.86,0,0,1-2.63-2.63h0L33.8,29.36,3.4,5.8V53.28a1.14,1.14,0,0,0,1.13,1.13H85.47Z"/></svg>