<svg id="Capa_1" data-name="Capa 1" xmlns="http://www.w3.org/2000/svg" viewBox="0 0 25.5 25"><defs><style>.cls-1{fill:#ff85e0;}</style></defs><path d="M4,2A1,1,0,0,0,4,4ZM6.22,3l1-.2a1,1,0,0,0-1-.8ZM5.69,5.41a1,1,0,0,0,2-.4Zm2.75,7.64a1,1,0,1,0,0,2Zm11.12,1v1a1,1,0,0,0,.89-.55ZM24,5.21l.89.45A1,1,0,0,0,24,4.21Zm-17.33-1a1,1,0,0,0,0,2Zm.79,10A1,1,0,0,0,8.64,15a1,1,0,0,0,.78-1.17ZM7.65,5a1,1,0,0,0-2,.4Zm1.5,9.75a1,1,0,0,0-1.41-1.42ZM5.9,16.59l-.71-.71Zm13.66,2.88a1,1,0,1,0,0-2Zm0-1h-1a1,1,0,0,0,.29.71Zm2.22,2.21-.71.71a1,1,0,0,0,.71.29Zm-11.11,0-.87-.5a1,1,0,0,0-.13.5Zm0,2.21h-1a1,1,0,0,0,.13.51ZM4,4H6.22V2H4Zm1.24-.8.45,2.21,2-.4L7.2,2.8Zm3.2,11.85H19.56v-2H8.44Zm12-.55,4.44-8.84-1.78-.9L18.66,13.6ZM24,4.21H6.67v2H24ZM9.42,13.86,7.65,5l-2,.4,1.77,8.84Zm-1.68-.52L5.19,15.88,6.6,17.3l2.55-2.54ZM5.19,15.88a2.1,2.1,0,0,0,1.49,3.59v-2H6.62a.1.1,0,0,1,0-.05.18.18,0,0,1,0-.06.05.05,0,0,1,0-.05Zm1.49,3.59H19.56v-2H6.68Zm13.88-1a1.22,1.22,0,0,1,1.22-1.21v-2a3.22,3.22,0,0,0-3.22,3.21Zm1.22-1.21A1.22,1.22,0,0,1,23,18.47h2a3.22,3.22,0,0,0-3.22-3.21ZM23,18.47a1.21,1.21,0,0,1-1.22,1.21v2A3.22,3.22,0,0,0,25,18.47ZM22.48,20l-2.22-2.22-1.41,1.42,2.22,2.21Zm-11,1.21a1.23,1.23,0,0,1,1.38-.57l.51-1.93A3.22,3.22,0,0,0,9.8,20.18Zm1.38-.57a1.21,1.21,0,0,1,.9,1.17h2a3.2,3.2,0,0,0-2.39-3.1Zm.9,1.17a1.21,1.21,0,0,1-.9,1.17l.51,1.93a3.2,3.2,0,0,0,2.39-3.1ZM12.91,23a1.23,1.23,0,0,1-1.38-.57l-1.73,1a3.22,3.22,0,0,0,3.62,1.49Zm-1.24-.07V20.68h-2v2.21Z" transform="translate(-3)"/><circle class="cls-1" cx="20.5" cy="5" r="5"/></svg>